<svg width="128" height="128" version="1.1" xmlns="http://www.w3.org/2000/svg" desc="Created with imagetracer.js version 1.2.6" ><path fill="rgb(132,79,11)" stroke="rgb(132,79,11)" stroke-width="1" opacity="0.9686274509803922" d="M 9.5 7 L 7.5 10 L 9.5 7 Z " /><path fill="rgb(132,79,11)" stroke="rgb(132,79,11)" stroke-width="1" opacity="0.9686274509803922" d="M 118.5 7 L 120.5 10 L 118.5 7 Z " /><path fill="rgb(132,79,11)" stroke="rgb(132,79,11)" stroke-width="1" opacity="0.9686274509803922" d="M 7.5 118 L 9.5 121 L 7.5 118 Z " /><path fill="rgb(132,79,11)" stroke="rgb(132,79,11)" stroke-width="1" opacity="0.9686274509803922" d="M 120.5 118 L 118.5 121 L 120.5 118 Z " /><path fill="rgb(133,79,11)" stroke="rgb(133,79,11)" stroke-width="1" opacity="0.6039215686274509" d="M 21.5 0 L 25 0.5 L 21.5 1 L 21.5 0 Z " /><path fill="rgb(133,79,11)" stroke="rgb(133,79,11)" stroke-width="1" opacity="0.6039215686274509" d="M 103.5 0 L 107 0.5 L 103.5 1 L 103.5 0 Z " /><path fill="rgb(133,79,11)" stroke="rgb(133,79,11)" stroke-width="1" opacity="0.6039215686274509" d="M 15.5 2 L 17 2.5 L 14.5 4 L 15.5 2 Z " /><path fill="rgb(133,79,11)" stroke="rgb(133,79,11)" stroke-width="1" opacity="0.6039215686274509" d="M 111.5 2 L 114 3.5 L 112.5 3 L 111.5 2 Z " /><path fill="rgb(133,79,11)" stroke="rgb(133,79,11)" stroke-width="1" opacity="0.6039215686274509" d="M 12.5 4 L 10.5 7 L 7 9.5 L 4.5 13 L 6 10.5 L 9.5 6 L 12.5 4 Z " /><path fill="rgb(133,79,11)" stroke="rgb(133,79,11)" stroke-width="1" opacity="0.6039215686274509" d="M 115.5 4 L 122 9.5 L 124 12.5 L 121 10.5 L 118.5 7 L 115.5 4 Z " /><path fill="rgb(133,79,11)" stroke="rgb(133,79,11)" stroke-width="1" opacity="0.6039215686274509" d="M 3.5 14 L 3 15.5 L 2.5 17 L 2 15.5 L 3.5 14 Z " /><path fill="rgb(133,79,11)" stroke="rgb(133,79,11)" stroke-width="1" opacity="0.6039215686274509" d="M 124.5 14 L 126 16.5 L 125 16.5 L 124.5 14 Z " /><path fill="rgb(133,79,11)" stroke="rgb(133,79,11)" stroke-width="1" opacity="0.6039215686274509" d="M 0.5 21 L 1 24.5 L 0 24.5 L 0.5 21 Z " /><path fill="rgb(133,79,11)" stroke="rgb(133,79,11)" stroke-width="1" opacity="0.6039215686274509" d="M 127.5 21 L 128 24.5 L 127 24.5 L 127.5 21 Z " /><path fill="rgb(133,79,11)" stroke="rgb(133,79,11)" stroke-width="1" opacity="0.6039215686274509" d="M 0.5 103 L 1 106.5 L 0 106.5 L 0.5 103 Z " /><path fill="rgb(133,79,11)" stroke="rgb(133,79,11)" stroke-width="1" opacity="0.6039215686274509" d="M 127.5 103 L 128 106.5 L 127 106.5 L 127.5 103 Z " /><path fill="rgb(133,79,11)" stroke="rgb(133,79,11)" stroke-width="1" opacity="0.6039215686274509" d="M 2.5 111 L 4 113.5 L 2 112.5 L 2.5 111 Z " /><path fill="rgb(133,79,11)" stroke="rgb(133,79,11)" stroke-width="1" opacity="0.6039215686274509" d="M 125.5 111 L 126 112.5 L 124 113.5 L 125.5 111 Z " /><path fill="rgb(133,79,11)" stroke="rgb(133,79,11)" stroke-width="1" opacity="0.6039215686274509" d="M 4.5 115 L 9.5 121 L 13 123.5 L 10.5 122 L 6 118.5 L 4.5 115 Z " /><path fill="rgb(133,79,11)" stroke="rgb(133,79,11)" stroke-width="1" opacity="0.6039215686274509" d="M 123.5 115 L 122 117.5 L 118.5 122 L 115.5 124 L 117.5 121 L 121 118.5 L 123.5 115 Z " /><path fill="rgb(133,79,11)" stroke="rgb(133,79,11)" stroke-width="1" opacity="0.6039215686274509" d="M 14.5 124 L 17 125.5 L 15.5 126 L 14.5 124 Z " /><path fill="rgb(133,79,11)" stroke="rgb(133,79,11)" stroke-width="1" opacity="0.6039215686274509" d="M 113.5 124 L 112.5 126 L 111 125.5 L 113.5 124 Z " /><path fill="rgb(133,79,11)" stroke="rgb(133,79,11)" stroke-width="1" opacity="0.6039215686274509" d="M 21.5 127 L 25 127.5 L 21.5 128 L 21.5 127 Z " /><path fill="rgb(133,79,11)" stroke="rgb(133,79,11)" stroke-width="1" opacity="0.6039215686274509" d="M 103.5 127 L 107 127.5 L 103.5 128 L 103.5 127 Z " /><path fill="rgb(133,79,11)" stroke="rgb(133,79,11)" stroke-width="1" opacity="1" d="M 27.5 0 L 100.5 0 Q 101.8 2.3 106.5 1 L 115.5 5 L 123 12.5 L 126 18.5 L 128 27.5 L 128 100.5 Q 125.7 101.8 127 106.5 L 123 115.5 L 115.5 123 L 109.5 126 L 100.5 128 L 27.5 128 Q 26.2 125.7 21.5 127 L 12.5 123 L 5 115.5 L 2 109.5 L 0 100.5 L 0 27.5 Q 2.3 26.2 1 21.5 L 5 12.5 L 12.5 5 L 18.5 2 L 27.5 0 Z M 87 15 L 61 22 L 44 31 Q 31 39 27 57 L 27 62 L 30 66 L 49 83 L 38 98 L 37 102 Q 38 104 42 103 L 55 85 L 64 89 L 73 91 L 81 91 L 82 92 L 93 91 Q 103 80 107 63 L 107 51 L 104 40 L 92 20 L 87 15 Z " /><path fill="rgb(133,79,11)" stroke="rgb(133,79,11)" stroke-width="1" opacity="1" d="M 82 20 L 87 20 L 87 21.5 L 87 23.5 L 59.5 77 L 59 75 L 55.5 74 L 54 74.5 L 82 20 Z " /><path fill="rgb(187,135,60)" stroke="rgb(187,135,60)" stroke-width="1" opacity="1" d="M 86.5 15 L 92 19.5 L 87.5 16 L 86.5 15 Z " /><path fill="rgb(187,135,60)" stroke="rgb(187,135,60)" stroke-width="1" opacity="1" d="M 83.5 19 L 86 19.5 L 83.5 20 L 83.5 19 Z " /><path fill="rgb(187,135,60)" stroke="rgb(187,135,60)" stroke-width="1" opacity="1" d="M 93.5 22 L 94.5 24 L 93.5 22 Z " /><path fill="rgb(187,135,60)" stroke="rgb(187,135,60)" stroke-width="1" opacity="1" d="M 49.5 27 L 48.5 29 L 49.5 27 Z " /><path fill="rgb(187,135,60)" stroke="rgb(187,135,60)" stroke-width="1" opacity="1" d="M 43.5 31 L 42.5 33 L 43.5 31 Z " /><path fill="rgb(187,135,60)" stroke="rgb(187,135,60)" stroke-width="1" opacity="1" d="M 35.5 39 L 33.5 42 L 35.5 39 Z " /><path fill="rgb(187,135,60)" stroke="rgb(187,135,60)" stroke-width="1" opacity="1" d="M 106.5 50 L 107 55.5 L 106 55.5 L 106.5 50 Z " /><path fill="rgb(187,135,60)" stroke="rgb(187,135,60)" stroke-width="1" opacity="1" d="M 27.5 56 L 28 58.5 L 27 58.5 L 27.5 56 Z " /><path fill="rgb(187,135,60)" stroke="rgb(187,135,60)" stroke-width="1" opacity="1" d="M 106.5 57 L 107 62.5 L 106 62.5 L 106.5 57 Z " /><path fill="rgb(187,135,60)" stroke="rgb(187,135,60)" stroke-width="1" opacity="1" d="M 27.5 61 L 28.5 63 L 27.5 61 Z " /><path fill="rgb(187,135,60)" stroke="rgb(187,135,60)" stroke-width="1" opacity="1" d="M 30.5 65 L 34.5 70 L 30.5 65 Z " /><path fill="rgb(187,135,60)" stroke="rgb(187,135,60)" stroke-width="1" opacity="1" d="M 38.5 73 L 41.5 77 L 38.5 73 Z " /><path fill="rgb(187,135,60)" stroke="rgb(187,135,60)" stroke-width="1" opacity="1" d="M 54.5 73 L 57 74.5 L 53.5 77 L 53 75 L 55 74.5 L 54.5 73 Z " /><path fill="rgb(187,135,60)" stroke="rgb(187,135,60)" stroke-width="1" opacity="1" d="M 59.5 77 L 59 78.5 L 58.5 80 L 58 78.5 L 59.5 77 Z " /><path fill="rgb(187,135,60)" stroke="rgb(187,135,60)" stroke-width="1" opacity="1" d="M 44.5 78 L 45.5 80 L 44.5 78 Z " /><path fill="rgb(187,135,60)" stroke="rgb(187,135,60)" stroke-width="1" opacity="1" d="M 48.5 81 L 49.5 83 L 48.5 81 Z " /><path fill="rgb(187,135,60)" stroke="rgb(187,135,60)" stroke-width="1" opacity="1" d="M 47.5 85 L 46.5 87 L 47.5 85 Z " /><path fill="rgb(187,135,60)" stroke="rgb(187,135,60)" stroke-width="1" opacity="1" d="M 94.5 88 L 92.5 91 L 94.5 88 Z " /><path fill="rgb(187,135,60)" stroke="rgb(187,135,60)" stroke-width="1" opacity="1" d="M 72.5 90 L 75 90.5 L 72.5 91 L 72.5 90 Z " /><path fill="rgb(187,135,60)" stroke="rgb(187,135,60)" stroke-width="1" opacity="1" d="M 49.5 91 L 48.5 93 L 49.5 91 Z " /><path fill="rgb(187,135,60)" stroke="rgb(187,135,60)" stroke-width="1" opacity="1" d="M 81.5 91 L 88 91.5 L 81.5 92 L 81.5 91 Z " /><path fill="rgb(187,135,60)" stroke="rgb(187,135,60)" stroke-width="1" opacity="1" d="M 42.5 92 L 41.5 94 L 42.5 92 Z " /><path fill="rgb(187,135,60)" stroke="rgb(187,135,60)" stroke-width="1" opacity="1" d="M 39.5 96 L 38.5 98 L 39.5 96 Z " /><path fill="rgb(187,135,60)" stroke="rgb(187,135,60)" stroke-width="1" opacity="1" d="M 44.5 98 L 43.5 100 L 44.5 98 Z " /><path fill="rgb(235,184,103)" stroke="rgb(235,184,103)" stroke-width="1" opacity="1" d="M 91.5 20 L 92.5 22 L 91.5 20 Z " /><path fill="rgb(235,184,103)" stroke="rgb(235,184,103)" stroke-width="1" opacity="1" d="M 41.5 33 L 36.5 39 L 41.5 33 Z " /><path fill="rgb(235,184,103)" stroke="rgb(235,184,103)" stroke-width="1" opacity="1" d="M 29.5 63 L 30.5 65 L 29.5 63 Z " /><path fill="rgb(235,184,103)" stroke="rgb(235,184,103)" stroke-width="1" opacity="1" d="M 35.5 70 L 37.5 73 L 35.5 70 Z " /><path fill="rgb(235,184,103)" stroke="rgb(235,184,103)" stroke-width="1" opacity="1" d="M 58.5 76 L 60 78.5 L 58 77.5 L 58.5 76 Z " /><path fill="rgb(235,184,103)" stroke="rgb(235,184,103)" stroke-width="1" opacity="1" d="M 95.5 86 L 94.5 88 L 95.5 86 Z " /><path fill="rgb(235,184,103)" stroke="rgb(235,184,103)" stroke-width="1" opacity="1" d="M 46.5 87 L 45.5 89 L 46.5 87 Z " /><path fill="rgb(235,184,103)" stroke="rgb(235,184,103)" stroke-width="1" opacity="1" d="M 50.5 89 L 49.5 91 L 50.5 89 Z " /><path fill="rgb(235,184,103)" stroke="rgb(235,184,103)" stroke-width="1" opacity="1" d="M 45.5 96 L 44.5 98 L 45.5 96 Z " /><path fill="rgb(250,198,116)" stroke="rgb(250,198,116)" stroke-width="1" opacity="1" d="M 36.5 40 L 38 42.5 L 37 42.5 L 36.5 40 Z " /><path fill="rgb(250,198,116)" stroke="rgb(250,198,116)" stroke-width="1" opacity="1" d="M 81.5 75 L 80.5 77 L 81.5 75 Z " /><path fill="rgb(250,198,116)" stroke="rgb(250,198,116)" stroke-width="1" opacity="1" d="M 69.5 87 L 71 89.5 L 70 89.5 L 69.5 87 Z " /><path fill="rgb(250,198,116)" stroke="rgb(250,198,116)" stroke-width="1" opacity="1" d="M 41.5 101 L 40.5 103 L 41.5 101 Z " /><path fill="rgb(250,199,117)" stroke="rgb(250,199,117)" stroke-width="1" opacity="1" d="M 85.5 16 Q 90.5 15.5 91 19.5 Q 99.3 28.7 104 41.5 L 106 49.5 L 106 60.5 L 106 62.5 Q 102.4 80.4 91.5 91 L 78.5 91 L 77.5 90 L 71 90 L 70.5 88 L 66.5 89 L 53 84 Q 48.2 94.8 39.5 103 L 38 99.5 L 50 83.5 L 50 81 Q 38.3 76.2 31 65.5 Q 26.7 63.3 28 55.5 Q 31.6 39.6 43.5 32 L 62.5 22 L 85.5 16 Z M 83 19 L 53 75 L 54 78 L 56 75 L 58 77 L 56 81 L 58 81 L 68 64 Q 67 61 70 62 L 69 61 L 88 25 L 88 21 Q 87 18 83 19 Z " /><path fill="rgb(3,2,0)" stroke="rgb(3,2,0)" stroke-width="1" opacity="0" d="M 0 0 L 21 0.5 L 15.5 2 L 6 9.5 Q 1.7 13.7 0.5 21 L 0 0 Z " /><path fill="rgb(3,2,0)" stroke="rgb(3,2,0)" stroke-width="1" opacity="0" d="M 107.5 0 L 128 0 L 128 20.5 L 127 20.5 L 126 15.5 L 118.5 6 L 112.5 2 L 107.5 1 L 107.5 0 Z " /><path fill="rgb(3,2,0)" stroke="rgb(3,2,0)" stroke-width="1" opacity="0" d="M 0.5 107 L 2 112.5 L 9.5 122 Q 13.7 126.3 21 127.5 L 0 128 L 0.5 107 Z " /><path fill="rgb(3,2,0)" stroke="rgb(3,2,0)" stroke-width="1" opacity="0" d="M 127.5 107 L 128 128 L 107 127.5 L 112.5 126 L 122 118.5 Q 126.3 114.3 127.5 107 Z " /></svg>