<?xml version="1.0" standalone="no"?>
<!DOCTYPE svg PUBLIC "-//W3C//DTD SVG 20010904//EN"
 "http://www.w3.org/TR/2001/REC-SVG-20010904/DTD/svg10.dtd">
<svg version="1.0" xmlns="http://www.w3.org/2000/svg"
 width="128.000000pt" height="128.000000pt" viewBox="0 0 128.000000 128.000000"
 preserveAspectRatio="xMidYMid meet">

<g transform="translate(0.000000,128.000000) scale(0.100000,-0.100000)"
fill="#000000" stroke="none">
<path d="M202 1265 c-97 -30 -171 -111 -192 -208 -8 -35 -10 -180 -8 -447 3
-378 4 -397 24 -441 27 -58 85 -116 143 -143 45 -20 59 -21 471 -21 412 0 426
1 471 21 58 27 116 85 143 143 20 45 21 59 21 471 0 412 -1 426 -21 471 -27
58 -85 116 -143 143 -44 20 -61 21 -456 23 -324 2 -419 -1 -453 -12z m733
-208 c163 -216 175 -412 37 -621 l-45 -68 -116 5 c-105 4 -173 18 -252 51 -12
5 -33 -15 -83 -83 -36 -50 -73 -91 -81 -91 -35 0 -25 33 36 117 l63 86 -35 26
c-58 44 -136 120 -164 161 -25 37 -26 42 -16 90 31 142 140 252 325 325 70 27
265 76 278 69 3 -2 28 -32 53 -67z"/>
<path d="M834 1082 c-24 -16 -302 -556 -283 -550 8 3 21 -1 31 -9 15 -13 29
11 157 260 78 151 141 277 141 280 0 11 -36 26 -46 19z"/>
</g>
</svg>
